<svg width="239" height="207" viewBox="0 0 239 207" fill="none" xmlns="http://www.w3.org/2000/svg">
<path d="M22 162.5V124H11V153.5C11 162.3 4 164.167 0.5 164V166C1 166 4.6 165.2 17 166C32.5 167 47.5 169.5 61 168C92.2 163.6 94 136.833 91 124H80.5C86 142.5 75 164 55 166C39 167.6 26.3333 164.333 22 162.5Z" fill="black"/>
<path d="M139 43V60H140C140 47.5 164.833 44 177 45V91H187V45C217.4 45 224 53 224 60H225V43H139Z" fill="black"/>
<path d="M22.0001 45.5905V91H11V55.5C11 47.1 4 44.6667 0.5 44.5V43C5.5 43 20.9381 41.9375 27.5001 41.5C30 41.3333 45 40.5 57.5 41C70 41.5 84 47.5 84 65C84 79 67.3333 88.1667 59 91H47C73 78.5 74 67.5 74 64C74 60.5 73.5 51.5 62.5 46.5C51.5 41.5 33.5001 43.5 27.5001 44.5C22.7001 45.3 24.5 45 22.0001 45.5905Z" fill="black"/>
<path d="M9.30187 114V100H15.3419C16.9019 100 18.1085 100.313 18.9619 100.94C19.8285 101.567 20.2619 102.453 20.2619 103.6C20.2619 104.36 20.0819 105 19.7219 105.52C19.3752 106.04 18.8952 106.433 18.2819 106.7C17.6819 106.967 17.0219 107.1 16.3019 107.1L16.6419 106.62C17.5352 106.62 18.3019 106.76 18.9419 107.04C19.5952 107.307 20.1019 107.713 20.4619 108.26C20.8219 108.793 21.0019 109.46 21.0019 110.26C21.0019 111.447 20.5619 112.367 19.6819 113.02C18.8152 113.673 17.5019 114 15.7419 114H9.30187ZM10.7819 112.78H15.7219C16.9485 112.78 17.8885 112.573 18.5419 112.16C19.1952 111.733 19.5219 111.06 19.5219 110.14C19.5219 109.233 19.1952 108.573 18.5419 108.16C17.8885 107.733 16.9485 107.52 15.7219 107.52H10.6219V106.3H15.2419C16.3619 106.3 17.2285 106.087 17.8419 105.66C18.4685 105.233 18.7819 104.6 18.7819 103.76C18.7819 102.907 18.4685 102.273 17.8419 101.86C17.2285 101.433 16.3619 101.22 15.2419 101.22H10.7819V112.78ZM36.1 114.12C35.0467 114.12 34.0667 113.947 33.16 113.6C32.2667 113.24 31.4867 112.74 30.82 112.1C30.1667 111.447 29.6533 110.693 29.28 109.84C28.92 108.973 28.74 108.027 28.74 107C28.74 105.973 28.92 105.033 29.28 104.18C29.6533 103.313 30.1667 102.56 30.82 101.92C31.4867 101.267 32.2667 100.767 33.16 100.42C34.0533 100.06 35.0333 99.88 36.1 99.88C37.1533 99.88 38.1267 100.06 39.02 100.42C39.9133 100.767 40.6867 101.26 41.34 101.9C42.0067 102.54 42.52 103.293 42.88 104.16C43.2533 105.027 43.44 105.973 43.44 107C43.44 108.027 43.2533 108.973 42.88 109.84C42.52 110.707 42.0067 111.46 41.34 112.1C40.6867 112.74 39.9133 113.24 39.02 113.6C38.1267 113.947 37.1533 114.12 36.1 114.12ZM36.1 112.8C36.94 112.8 37.7133 112.66 38.42 112.38C39.14 112.087 39.76 111.68 40.28 111.16C40.8133 110.627 41.2267 110.013 41.52 109.32C41.8133 108.613 41.96 107.84 41.96 107C41.96 106.16 41.8133 105.393 41.52 104.7C41.2267 103.993 40.8133 103.38 40.28 102.86C39.76 102.327 39.14 101.92 38.42 101.64C37.7133 101.347 36.94 101.2 36.1 101.2C35.26 101.2 34.48 101.347 33.76 101.64C33.04 101.92 32.4133 102.327 31.88 102.86C31.36 103.38 30.9467 103.993 30.64 104.7C30.3467 105.393 30.2 106.16 30.2 107C30.2 107.827 30.3467 108.593 30.64 109.3C30.9467 110.007 31.36 110.627 31.88 111.16C32.4133 111.68 33.04 112.087 33.76 112.38C34.48 112.66 35.26 112.8 36.1 112.8ZM52.3573 114V100H53.8373V112.72H61.6773V114H52.3573ZM69.7347 114V100H75.4347C76.928 100 78.2347 100.3 79.3547 100.9C80.488 101.487 81.368 102.307 81.9947 103.36C82.6214 104.413 82.9347 105.627 82.9347 107C82.9347 108.373 82.6214 109.587 81.9947 110.64C81.368 111.693 80.488 112.52 79.3547 113.12C78.2347 113.707 76.928 114 75.4347 114H69.7347ZM71.2147 112.72H75.3547C76.5947 112.72 77.668 112.48 78.5747 112C79.4947 111.507 80.208 110.833 80.7147 109.98C81.2214 109.113 81.4747 108.12 81.4747 107C81.4747 105.867 81.2214 104.873 80.7147 104.02C80.208 103.167 79.4947 102.5 78.5747 102.02C77.668 101.527 76.5947 101.28 75.3547 101.28H71.2147V112.72Z" fill="black"/>
<path d="M129.277 114V101.28H124.357V100H135.677V101.28H130.757V114H129.277ZM153.882 100H155.342V114H153.882V100ZM145.122 114H143.642V100H145.122V114ZM154.022 107.54H144.962V106.24H154.022V107.54ZM165.511 114V100H170.751C171.938 100 172.958 100.193 173.811 100.58C174.665 100.953 175.318 101.5 175.771 102.22C176.238 102.927 176.471 103.787 176.471 104.8C176.471 105.787 176.238 106.64 175.771 107.36C175.318 108.067 174.665 108.613 173.811 109C172.958 109.373 171.938 109.56 170.751 109.56H166.331L166.991 108.88V114H165.511ZM175.071 114L171.471 108.92H173.071L176.691 114H175.071ZM166.991 109L166.331 108.3H170.711C172.111 108.3 173.171 107.993 173.891 107.38C174.625 106.767 174.991 105.907 174.991 104.8C174.991 103.68 174.625 102.813 173.891 102.2C173.171 101.587 172.111 101.28 170.711 101.28H166.331L166.991 100.58V109ZM186.884 106.26H194.284V107.52H186.884V106.26ZM187.044 112.72H195.464V114H185.564V100H195.164V101.28H187.044V112.72ZM202.303 114L208.703 100H210.163L216.563 114H215.003L209.123 100.86H209.723L203.843 114H202.303ZM204.823 110.26L205.263 109.06H213.403L213.843 110.26H204.823ZM224.479 114V100H230.179C231.673 100 232.979 100.3 234.099 100.9C235.233 101.487 236.113 102.307 236.739 103.36C237.366 104.413 237.679 105.627 237.679 107C237.679 108.373 237.366 109.587 236.739 110.64C236.113 111.693 235.233 112.52 234.099 113.12C232.979 113.707 231.673 114 230.179 114H224.479ZM225.959 112.72H230.099C231.339 112.72 232.413 112.48 233.319 112C234.239 111.507 234.953 110.833 235.459 109.98C235.966 109.113 236.219 108.12 236.219 107C236.219 105.867 235.966 104.873 235.459 104.02C234.953 103.167 234.239 102.5 233.319 102.02C232.413 101.527 231.339 101.28 230.099 101.28H225.959V112.72Z" fill="black"/>
<line x1="113.75" x2="113.75" y2="91" stroke="black" stroke-width="1.5"/>
<line x1="113.75" y1="124" x2="113.75" y2="207" stroke="black" stroke-width="1.5"/>
<path d="M198 166H166V165C176 165 177 156.5 177 152V124H187V152C187 162.4 194.667 165 198 165V166Z" fill="black"/>
</svg>
